<svg xmlns="http://www.w3.org/2000/svg" width="500" height="500" style="width:100%;height:100%;transform:translate3d(0,0,0);content-visibility:visible" viewBox="0 0 500 500"><defs><filter id="a" width="100%" height="100%" x="0%" y="0%" filterUnits="objectBoundingBox"><feComponentTransfer in="SourceGraphic"><feFuncA tableValues="1.0 0.0" type="table"/></feComponentTransfer></filter><filter id="c" width="100%" height="100%" x="0%" y="0%" filterUnits="objectBoundingBox"><feComponentTransfer in="SourceGraphic"><feFuncA tableValues="1.0 0.0" type="table"/></feComponentTransfer></filter><mask id="g" mask-type="alpha"><g filter="url(#a)"><path fill="#fff" d="M0 0h500v500H0z" opacity="0"/><use xmlns:ns1="http://www.w3.org/1999/xlink" ns1:href="#b"/></g></mask><mask id="f" mask-type="alpha"><g filter="url(#c)"><path fill="#fff" d="M0 0h500v500H0z" opacity="0"/><use xmlns:ns2="http://www.w3.org/1999/xlink" ns2:href="#d"/></g></mask><clipPath id="e"><path d="M0 0h500v500H0z"/></clipPath><path id="d" style="display:none"/><g id="b" style="display:none"><path/><path style="mix-blend-mode:multiply"/></g></defs><g clip-path="url(#e)"><g opacity=".98" style="display:block"><path fill="#4F1091" d="M239.32 254.139H130.352v-84.292H239.32v84.292z" opacity="1"/></g><path fill="#4F1091" d="M-38.155-20.015H66.238l-32.599 40.03h-99.877l28.083-40.03z" style="display:block" transform="translate(196.589 149.831)"/><path fill="#A866ED" d="M26.49-131.485 0-160.025l-26.49 28.54c-29.85 8.38-51.73 35.8-51.73 68.33v223.18H78.22v-223.18c0-32.53-21.88-59.95-51.73-68.33z" style="display:block" transform="translate(301.975 250)"/><g opacity=".5" style="mix-blend-mode:multiply;display:block"><path fill="#A866ED" d="M-78.095-12.043v24.098h156.19v-18.11a71.75 71.75 0 0 0-.251-6H-78.094l-.001.012z" opacity="1" style="mix-blend-mode:multiply" transform="translate(301.85 192.9)"/></g><g opacity=".5" style="mix-blend-mode:multiply;display:block"><path fill="#A866ED" d="M-26.023-62.961c0-32.242 21.495-59.463 50.939-68.102a2.983 2.983 0 0 0 1.351-.83l16.425-17.777-9.663-10.355-26.491 28.54c-29.85 8.38-51.73 35.8-51.73 68.33v223.18l19.169.025V-62.961z" opacity="1" style="mix-blend-mode:multiply" transform="translate(268.947 250)"/></g><path fill="#6C15C6" d="M-18.195 16.576h36.39v-33.152h-36.39v33.152z" style="display:block" transform="translate(273.469 254.139)"/><path fill="#6C15C6" d="M-18.195 16.576h36.39v-33.152h-36.39v33.152z" style="display:block" transform="translate(333.275 254.139)"/><path fill="#6C15C6" d="M-18.195 16.576h36.39v-33.152h-36.39v33.152z" style="display:block" transform="translate(273.469 309.78)"/><path fill="#6C15C6" d="M-18.195 16.576h36.39v-33.152h-36.39v33.152z" style="display:block" transform="translate(333.275 309.78)"/><path fill="#6C15C6" d="M-18.195 16.576h36.39v-33.152h-36.39v33.152z" style="display:block" transform="translate(273.469 365.42)"/><path fill="#6C15C6" d="M-18.195 16.576h36.39v-33.152h-36.39v33.152z" style="display:block" transform="translate(333.275 365.42)"/><g opacity=".5" style="mix-blend-mode:multiply;display:block"><path fill="#4F1091" d="M-12.084-42.146v84.292l18.668-.111v-84.292l-18.668.111z" opacity="1" style="mix-blend-mode:multiply" transform="translate(142.436 211.993)"/></g><g opacity=".5" style="mix-blend-mode:multiply;display:block"><path fill="#4F1091" d="m2.656-20.015-28.084 40.03 18.782-.014 26.574-39.86" opacity="1" style="mix-blend-mode:multiply" transform="translate(155.779 149.832)"/></g><path fill="#6C15C6" d="M53.373-50.714 0-106.746l-53.373 56.032v157.46H53.373v-157.46z" style="display:block" transform="translate(170.382 303.279)"/><path fill="#636D78" d="M-20.015 21.349h40.03v-42.698h-40.03v42.698z" style="display:block" transform="translate(170.382 281.93)"/><path fill="#636D78" d="M-20.015 21.349h40.03v-42.698h-40.03v42.698z" style="display:block" transform="translate(170.382 356.652)"/><g opacity=".5" style="mix-blend-mode:multiply;display:block"><path fill="#6C15C6" d="m-16.481-50.475-.165-17.521-16.123 17.282v157.46l15.919.025.369-157.246z" opacity="1" style="mix-blend-mode:multiply" transform="translate(149.778 303.279)"/></g><g fill="none" stroke="#4F1091" stroke-linecap="round" stroke-linejoin="round" stroke-width="7" style="display:block"><path d="M251.658 129.911h-95.061l-26.687 40.03v68.71m0-68.711h95.464"/><path d="m223.313 252.659-53.373-56.032-53.373 56.032v157.46h106.746v-157.46z"/><path d="M149.925 303.373h40.03v-42.698h-40.03v42.698zm229.58-122.434h-155.94m-.251 24.109h156.444m-126.322 65.761h36.39v-33.152h-36.39v33.152zm59.807 0h36.39v-33.152h-36.39v33.152zm-59.807 55.641h36.39v-33.152h-36.39v33.152zm59.807 0h36.39v-33.152h-36.39v33.152zm-59.807 55.64h36.39v-33.152h-36.39v33.152zm59.807 0h36.39v-33.152h-36.39v33.152zm-163.318-3.995h40.03v-42.698h-40.03v42.698zm176.147-225.278H277"/><path d="M328.025 118.609c29.85 8.38 51.73 35.8 51.73 68.33v223.18h-156.44v-223.18c0-32.53 21.88-59.95 51.73-68.33l26.49-28.54 26.49 28.54z"/></g><path style="display:none"/><g mask="url(#f)" style="mix-blend-mode:multiply;display:none"><path/></g><g fill="none" style="display:none"><path/><path/></g><g style="display:none"><path/><path style="mix-blend-mode:multiply"/><path fill="none"/></g><g style="display:none"><path/><path style="mix-blend-mode:multiply"/></g><g mask="url(#g)" style="mix-blend-mode:multiply;display:none"><path/></g><g fill="none" style="display:none"><path/><path/><path/><path/></g><g style="display:none"><path/><path fill="none"/></g><g style="display:none"><path/><path fill="none"/></g><g style="display:none"><path/><path fill="none"/></g><g style="display:none"><path/><path fill="none"/></g><g style="display:none"><path/><path fill="none"/></g><g style="display:none"><path/><path fill="none"/></g><g style="display:none"><path/><path fill="none"/></g><g style="display:none"><path/><path fill="none"/></g><path class="com" style="display:none"/></g></svg>