<?xml version="1.0" standalone="no"?>
<!DOCTYPE svg PUBLIC "-//W3C//DTD SVG 20010904//EN"
 "http://www.w3.org/TR/2001/REC-SVG-20010904/DTD/svg10.dtd">
<svg version="1.0" xmlns="http://www.w3.org/2000/svg"
 width="500.000000pt" height="500.000000pt" viewBox="0 0 500.000000 500.000000"
 preserveAspectRatio="xMidYMid meet">

<g transform="translate(0.000000,500.000000) scale(0.100000,-0.100000)"
fill="#973588" stroke="none">
<path d="M505 4958 c2 -7 128 -434 280 -948 152 -514 283 -956 291 -982 l16
-48 585 0 c463 0 584 3 580 13 -2 6 -130 454 -283 994 l-279 983 -597 0 c-474
0 -596 -3 -593 -12z"/>
<path d="M3345 4948 c-4 -13 -129 -459 -279 -993 l-273 -970 555 -3 c305 -1
557 0 560 3 4 4 525 1756 581 1953 l9 32 -574 0 -574 0 -5 -22z"/>
<path d="M2680 4576 c0 -19 5 -38 10 -41 6 -4 10 10 10 34 0 23 -4 41 -10 41
-5 0 -10 -15 -10 -34z"/>
<path d="M2540 4563 c0 -5 9 -21 19 -36 12 -19 21 -25 26 -18 8 13 -20 61 -35
61 -6 0 -10 -3 -10 -7z"/>
<path d="M2805 4541 c-8 -17 -11 -32 -6 -36 11 -6 41 33 41 52 0 23 -19 14
-35 -16z"/>
<path d="M2602 4479 c-75 -38 -116 -128 -98 -221 3 -18 24 -55 46 -82 33 -40
40 -56 40 -93 0 -65 31 -93 105 -93 71 0 95 21 95 85 0 34 6 52 29 77 58 68
80 138 62 206 -32 118 -167 176 -279 121z m137 -9 c67 -19 121 -90 121 -159 0
-53 -14 -87 -55 -133 -19 -21 -35 -43 -35 -48 0 -6 -33 -10 -79 -10 -66 0 -80
3 -85 18 -3 9 -21 36 -40 60 -41 50 -53 99 -37 152 15 52 47 89 95 111 47 21
67 23 115 9z m26 -380 c4 -6 -22 -10 -69 -10 -44 0 -76 4 -76 10 0 6 30 10 69
10 39 0 73 -4 76 -10z m-5 -55 c-16 -20 -131 -17 -138 3 -3 9 16 12 73 12 69
0 76 -2 65 -15z"/>
<path d="M2440 4460 c0 -14 58 -42 64 -31 3 5 -5 16 -19 25 -28 18 -45 21 -45
6z"/>
<path d="M2897 4451 c-16 -10 -24 -21 -19 -25 15 -9 62 15 62 31 0 18 -10 16
-43 -6z"/>
<path d="M2400 4320 c0 -5 15 -10 34 -10 19 0 38 5 41 10 4 6 -10 10 -34 10
-23 0 -41 -4 -41 -10z"/>
<path d="M2905 4320 c-4 -6 10 -10 34 -10 23 0 41 5 41 10 0 6 -15 10 -34 10
-19 0 -38 -4 -41 -10z"/>
<path d="M1063 2805 c-28 -20 -33 -36 -98 -335 -30 -140 -57 -263 -59 -273
-14 -61 45 -131 118 -142 60 -9 110 9 147 53 43 52 350 610 356 649 4 26 1 34
-21 49 -25 16 -30 16 -59 2 -28 -13 -55 -56 -187 -299 -160 -297 -185 -339
-201 -339 -17 0 -9 47 51 304 33 141 60 266 60 277 0 25 -43 69 -67 69 -10 0
-28 -7 -40 -15z"/>
<path d="M2241 2803 c-12 -10 -38 -64 -60 -123 -38 -103 -39 -105 -74 -111
-50 -8 -69 -26 -65 -63 2 -25 8 -32 31 -34 15 -2 27 -7 27 -12 0 -5 -16 -53
-35 -106 -50 -140 -107 -194 -208 -194 -58 0 -97 29 -97 73 0 47 60 206 82
218 30 16 40 1 33 -51 -5 -37 -3 -51 10 -64 59 -59 146 46 115 139 -34 103
-178 124 -264 38 -28 -28 -43 -61 -78 -166 -55 -167 -96 -218 -145 -182 -17
13 -15 23 39 181 47 139 54 171 45 191 -21 47 -83 39 -111 -15 -7 -15 -37 -96
-66 -180 -58 -170 -59 -200 -12 -245 58 -55 124 -61 206 -18 l56 30 47 -27
c41 -23 60 -27 128 -27 67 0 89 4 137 28 l57 28 38 -25 c72 -46 161 -46 229 0
36 25 37 25 58 6 64 -58 180 -53 251 9 29 25 44 31 92 33 32 1 72 10 89 19 55
28 110 101 135 177 12 39 28 70 35 70 6 0 21 -8 33 -17 l22 -18 -26 -74 c-43
-127 -28 -194 51 -227 46 -19 74 -18 126 9 l45 23 27 -20 c35 -26 127 -28 176
-3 34 17 37 16 75 -3 51 -26 81 -25 137 3 44 22 47 22 67 6 29 -24 99 -33 148
-20 69 19 117 62 157 142 43 86 46 125 12 140 -34 16 -64 -4 -88 -59 -30 -68
-57 -102 -91 -117 -36 -15 -57 -10 -57 15 0 9 25 90 55 180 53 153 55 163 40
186 -21 32 -59 40 -91 19 -23 -15 -32 -15 -69 -5 -61 17 -118 5 -159 -33 -25
-25 -43 -62 -81 -171 -61 -175 -103 -227 -152 -191 -19 14 -23 -2 52 215 50
146 50 173 0 186 -46 12 -69 -16 -110 -133 -79 -225 -105 -273 -147 -273 -31
0 -30 22 2 109 51 140 37 192 -67 237 -44 20 -53 28 -53 49 0 62 -90 89 -129
39 -22 -28 -28 -88 -12 -113 11 -17 -25 -121 -64 -187 -22 -37 -62 -64 -96
-64 -15 0 -10 32 13 79 31 64 35 147 9 188 -44 71 -164 91 -250 43 -54 -30
-70 -56 -121 -196 -45 -125 -63 -152 -112 -177 -27 -13 -42 -15 -62 -7 -36 13
-34 41 18 185 l42 120 45 3 c50 4 79 25 79 57 0 29 -19 45 -52 45 -15 0 -28 4
-28 8 0 5 13 48 30 96 31 93 30 115 -10 136 -26 14 -34 13 -59 -7z m371 -357
c18 -27 -2 -96 -28 -96 -24 0 -74 -55 -74 -82 0 -13 7 -33 15 -45 19 -28 11
-49 -25 -62 -24 -8 -34 -6 -52 9 l-23 18 34 104 c42 128 56 157 84 168 25 10
58 3 69 -14z m1086 2 c19 -19 14 -67 -18 -164 -31 -92 -49 -119 -84 -126 -40
-7 -41 24 -5 143 43 142 72 182 107 147z"/>
<path d="M1590 2787 c-56 -28 -48 -110 13 -131 22 -8 33 -6 55 11 70 52 10
159 -68 120z"/>
<path d="M3409 2788 c-61 -20 -59 -103 3 -129 25 -10 33 -9 56 8 47 35 37 111
-16 125 -9 3 -29 1 -43 -4z"/>
<path d="M1380 2009 c0 -9 446 -1525 562 -1912 l20 -67 538 0 538 0 20 68
c116 386 562 1902 562 1911 0 8 -301 11 -1120 11 -819 0 -1120 -3 -1120 -11z"/>
<path d="M676 711 c-3 -5 -62 -154 -131 -332 -112 -289 -123 -325 -110 -338
11 -11 20 -13 31 -6 20 13 268 651 260 671 -6 15 -42 19 -50 5z"/>
<path d="M270 503 c-81 -65 -135 -115 -135 -126 0 -21 262 -229 285 -225 8 2
16 13 18 25 2 16 -21 40 -108 108 -61 48 -109 91 -108 95 2 5 52 47 111 95 85
68 108 91 105 108 -2 12 -10 23 -18 25 -8 1 -76 -46 -150 -105z"/>
<path d="M724 595 c-11 -26 3 -42 108 -125 57 -45 104 -85 106 -89 1 -4 -47
-47 -108 -95 -87 -69 -110 -93 -108 -110 2 -11 10 -22 19 -24 8 -1 73 43 145
99 134 106 146 117 141 134 -5 15 -270 225 -285 225 -7 0 -15 -7 -18 -15z"/>
</g>
</svg>
